<svg width="18" height="18" viewBox="0 0 18 18" fill="none" xmlns="http://www.w3.org/2000/svg">
<path d="M5.09461 10.2387L7.72582 7.60752L1.97063 1.86162C1.52434 1.41534 0.752644 1.53621 0.473717 2.11266C-0.18641 3.49799 0.055327 5.19945 1.19893 6.35234L5.09461 10.2387ZM11.3984 8.55587C12.8209 9.21599 14.8199 8.75112 16.2982 7.2728C18.074 5.49697 18.418 2.94944 17.0513 1.5827C15.6938 0.225251 13.1463 0.559964 11.3612 2.3358C9.88285 3.81411 9.41797 5.81309 10.0781 7.23561L1.65451 15.6592C1.48066 15.833 1.383 16.0688 1.383 16.3147C1.383 16.5605 1.48066 16.7963 1.65451 16.9702C1.82835 17.144 2.06413 17.2417 2.30999 17.2417C2.55584 17.2417 2.79162 17.144 2.96546 16.9702L8.72066 11.2336L14.4666 16.9795C14.5526 17.0655 14.6548 17.1338 14.7673 17.1804C14.8798 17.227 15.0003 17.251 15.122 17.251C15.2438 17.251 15.3643 17.227 15.4768 17.1804C15.5892 17.1338 15.6914 17.0655 15.7775 16.9795C15.8636 16.8934 15.9319 16.7912 15.9785 16.6787C16.025 16.5663 16.049 16.4457 16.049 16.324C16.049 16.2022 16.025 16.0817 15.9785 15.9692C15.9319 15.8568 15.8636 15.7546 15.7775 15.6685L10.0316 9.92261L11.3984 8.55587Z" fill="white"/>
</svg>
