<?xml version="1.0" encoding="utf-8"?>
<!-- Generator: Adobe Illustrator 24.3.0, SVG Export Plug-In . SVG Version: 6.00 Build 0)  -->
<svg version="1.1" id="Layer_1" xmlns="http://www.w3.org/2000/svg" xmlns:xlink="http://www.w3.org/1999/xlink" x="0px" y="0px"
	 viewBox="0 0 80.33 80.22" style="enable-background:new 0 0 80.33 80.22;" xml:space="preserve">
<style type="text/css">
	.st1{fill:#FFFFFF;}
</style>
<g>
	
	<path class="st1" d="M35.63,66.27V38.39c0-1.09,0.88-1.97,1.97-1.97h16.71c1.09,0,1.97,0.88,1.97,1.97v27.88
		c0,1.09-0.88,1.97-1.97,1.97H37.6C36.52,68.24,35.63,67.36,35.63,66.27z"/>
	<path class="st1" d="M65.25,47.4l11.49-11.49c0.5-0.5,0.5-1.31,0-1.81l-7.21-7.21c-0.5-0.5-1.31-0.5-1.81,0L56.23,38.38
		c0,0,0,0-0.01,0l0,0c-0.59-0.59-1.55-0.59-2.14,0l-6.88,6.88c-0.59,0.59-0.59,1.55,0,2.14l0,0c0,0,0,0,0,0.01l-0.16,0.16
		c-0.5,0.5-0.5,1.31,0,1.81l7.21,7.21c0.5,0.5,1.31,0.5,1.81,0l0.16-0.16c0,0,0,0,0.01,0l11.33,11.33c0.59,0.59,1.55,0.59,2.14,0
		l6.89-6.89c0.59-0.59,0.59-1.55,0-2.14L65.25,47.4L65.25,47.4z"/>
	<path class="st1" d="M39.54,45.77L16.39,22.62c-0.28-0.28-0.66-0.43-1.05-0.43H9.58H4.67c-0.82,0-1.48,0.66-1.48,1.48v43.08
		c0,0.82,0.66,1.48,1.48,1.48h9.79c0.82,0,1.48-0.66,1.48-1.48V54.68c0-1.32,1.6-1.98,2.53-1.05l6.59,6.59
		c0.58,0.58,1.52,0.58,2.1,0l12.36-12.36C40.12,47.29,40.12,46.35,39.54,45.77z"/>
	<g>
		<circle class="st1" cx="45.95" cy="22.67" r="10.32"/>
	</g>
</g>
</svg>
